<svg xmlns="http://www.w3.org/2000/svg" version="1.1" xmlns:xlink="http://www.w3.org/1999/xlink" xmlns:svgjs="http://svgjs.dev/svgjs" width="1500" height="1256" viewBox="0 0 1500 1256"><g transform="matrix(1,0,0,1,-1.2833370047509334,-2.0258064516128798)"><svg viewBox="0 0 296 248" data-background-color="#ffffff" preserveAspectRatio="xMidYMid meet" height="1256" width="1500" xmlns="http://www.w3.org/2000/svg" xmlns:xlink="http://www.w3.org/1999/xlink"><g id="tight-bounds" transform="matrix(1,0,0,1,0.253245168937525,0.4000000000000057)"><svg viewBox="0 0 295.49350966212495 247.2" height="247.2" width="295.49350966212495"><g><svg viewBox="0 0 395.52 330.87882069489683" height="247.2" width="295.49350966212495"><g transform="matrix(1,0,0,1,0,243.28192646490507)"><svg viewBox="0 0 395.52 87.59689422999176" height="87.59689422999176" width="395.52"><g id="textblocktransform"><svg viewBox="0 0 395.52 87.59689422999176" height="87.59689422999176" width="395.52" id="textblock"><g><svg viewBox="0 0 395.52 59.008026896406804" height="59.008026896406804" width="395.52"><g transform="matrix(1,0,0,1,0,0)"><svg width="395.52" viewBox="1.7 -35.2 237.93 35.5" height="59.008026896406804" data-palette-color="#010c80"><path d="M27.2 0L24.7-7.1 10.15-7.1 7.65 0 1.7 0 14.15-34.8 20.75-34.8 33.2 0 27.2 0ZM11.75-11.75L23.1-11.75 17.45-27.9 11.75-11.75ZM70.6-24.75L63.75-24.75Q62.4-27.35 60-28.68 57.6-30 54.45-30L54.45-30Q51-30 48.3-28.45 45.6-26.9 44.07-24.05 42.55-21.2 42.55-17.45L42.55-17.45Q42.55-13.7 44.07-10.83 45.6-7.95 48.3-6.4 51-4.85 54.45-4.85L54.45-4.85Q59.1-4.85 62-7.45 64.9-10.05 65.55-14.5L65.55-14.5 52.5-14.5 52.5-19.05 71.65-19.05 71.65-14.6Q71.1-10.55 68.77-7.15 66.45-3.75 62.72-1.73 59 0.3 54.45 0.3L54.45 0.3Q49.55 0.3 45.5-1.98 41.45-4.25 39.07-8.3 36.7-12.35 36.7-17.45L36.7-17.45Q36.7-22.55 39.07-26.6 41.45-30.65 45.52-32.93 49.6-35.2 54.45-35.2L54.45-35.2Q60-35.2 64.32-32.48 68.65-29.75 70.6-24.75L70.6-24.75ZM96.45-30.15L82.95-30.15 82.95-19.95 94.95-19.95 94.95-15.3 82.95-15.3 82.95-4.65 96.45-4.65 96.45 0 77.25 0 77.25-34.8 96.45-34.8 96.45-30.15ZM131.99-34.8L131.99 0 126.29 0 109.14-25.95 109.14 0 103.44 0 103.44-34.8 109.14-34.8 126.29-8.9 126.29-34.8 131.99-34.8ZM150.84-34.75Q156.39-34.75 160.56-32.63 164.74-30.5 167.02-26.53 169.29-22.55 169.29-17.25L169.29-17.25Q169.29-11.95 167.02-8.05 164.74-4.15 160.56-2.08 156.39 0 150.84 0L150.84 0 139.49 0 139.49-34.75 150.84-34.75ZM150.84-4.65Q156.94-4.65 160.19-7.95 163.44-11.25 163.44-17.25L163.44-17.25Q163.44-23.3 160.19-26.7 156.94-30.1 150.84-30.1L150.84-30.1 145.19-30.1 145.19-4.65 150.84-4.65ZM174.94-34.75L180.64-34.75 180.64 0 174.94 0 174.94-34.75ZM188.13-34.75L208.58-34.75 208.58-30.1 193.83-30.1 193.83-19.85 205.33-19.85 205.33-15.2 193.83-15.2 193.83 0 188.13 0 188.13-34.75ZM233.33-34.75L239.63-34.75 228.13-12.6 228.13 0 222.43 0 222.43-12.6 210.88-34.75 217.23-34.75 225.28-17.7 233.33-34.75Z" opacity="1" transform="matrix(1,0,0,1,0,0)" fill="#010c80" class="wordmark-text-0" data-fill-palette-color="primary" id="text-0"></path></svg></g></svg></g><g transform="matrix(1,0,0,1,75.54432,72.93840585400294)"><svg viewBox="0 0 244.43135999999998 14.658488375988831" height="14.658488375988831" width="244.43135999999998"><g transform="matrix(1,0,0,1,0,0)"><svg width="244.43135999999998" viewBox="4.7 -38.05 859.52 51.55" height="14.658488375988831" data-palette-color="#010c80"><path d="M5.35-34.85L28.9-34.85 28.25-31.3 18.75-31.3 13.25 0 8.7 0 14.2-31.3 4.7-31.3 5.35-34.85ZM52.95-27.4L57.5-27.4 52.65 0 48.1 0 48.8-4Q47.15-1.9 44.6-0.75 42.05 0.4 39.3 0.4L39.3 0.4Q35 0.4 32.42-1.93 29.85-4.25 29.85-8.6L29.85-8.6Q29.85-9.7 30.1-11.35L30.1-11.35 32.95-27.4 37.45-27.4 34.75-11.95Q34.55-10.9 34.55-9.75L34.55-9.75Q34.55-6.7 36.22-5.13 37.9-3.55 40.9-3.55L40.9-3.55Q44.5-3.55 47.02-5.8 49.55-8.05 50.25-12.35L50.25-12.35 50.25-12.2 52.95-27.4ZM98.64 0L97.24-7.75 81.99-7.75 77.84 0 73.04 0 91.74-34.65 96.99-34.65 103.44 0 98.64 0ZM83.89-11.3L96.59-11.3 93.39-29.1 83.89-11.3ZM125.19-27.85Q128.74-27.85 131.14-26.3 133.54-24.75 134.39-22.4L134.39-22.4 135.29-27.4 139.89-27.4 134.94 0.6Q134.29 4.35 132.17 7.28 130.04 10.2 126.79 11.85 123.54 13.5 119.59 13.5L119.59 13.5Q114.19 13.5 111.04 10.93 107.89 8.35 107.99 4L107.99 4 112.54 4Q112.84 6.5 114.92 8.03 116.99 9.55 120.29 9.55L120.29 9.55Q124.04 9.55 126.84 7.2 129.64 4.85 130.39 0.6L130.39 0.6 131.39-5.15Q129.59-2.75 126.67-1.15 123.74 0.45 120.19 0.45L120.19 0.45Q116.99 0.45 114.54-0.93 112.09-2.3 110.72-4.85 109.34-7.4 109.34-10.75L109.34-10.75Q109.34-12.25 109.64-13.8L109.64-13.8Q110.39-18 112.67-21.18 114.94-24.35 118.22-26.1 121.49-27.85 125.19-27.85L125.19-27.85ZM132.89-13.75Q133.09-14.8 133.09-16L133.09-16Q133.09-19.65 130.92-21.78 128.74-23.9 125.39-23.9L125.39-23.9Q122.84-23.9 120.52-22.7 118.19-21.5 116.54-19.2 114.89-16.9 114.34-13.8L114.34-13.8Q114.14-12.75 114.14-11.5L114.14-11.5Q114.14-7.8 116.29-5.68 118.44-3.55 121.79-3.55L121.79-3.55Q124.34-3.55 126.67-4.78 128.99-6 130.67-8.33 132.34-10.65 132.89-13.75L132.89-13.75ZM159.49-27.85Q162.94-27.85 165.46-26.53 167.99-25.2 169.31-22.83 170.64-20.45 170.64-17.4L170.64-17.4Q170.64-16.35 170.39-14.85L170.39-14.85Q170.19-13.55 169.74-12.15L169.74-12.15 147.84-12.15Q147.74-11.15 147.74-10.7L147.74-10.7Q147.74-7.25 149.81-5.33 151.89-3.4 155.24-3.4L155.24-3.4Q158.19-3.4 160.41-4.78 162.64-6.15 163.79-8.45L163.79-8.45 168.69-8.45Q166.89-4.5 163.16-2.02 159.44 0.45 154.54 0.45L154.54 0.45Q149.39 0.45 146.26-2.53 143.14-5.5 143.14-10.65L143.14-10.65Q143.14-12.1 143.44-13.75L143.44-13.75Q144.19-18 146.49-21.2 148.79-24.4 152.16-26.13 155.54-27.85 159.49-27.85L159.49-27.85ZM165.79-15.45Q165.94-16.45 165.94-17.3L165.94-17.3Q165.94-20.5 163.91-22.25 161.89-24 158.64-24L158.64-24Q155.14-24 152.29-21.73 149.44-19.45 148.44-15.45L148.44-15.45 165.79-15.45ZM192.04-27.9Q196.29-27.9 198.84-25.63 201.39-23.35 201.39-19L201.39-19Q201.39-17.4 201.14-16.15L201.14-16.15 198.29 0 193.79 0 196.54-15.5Q196.74-16.55 196.74-17.7L196.74-17.7Q196.74-20.75 195.06-22.35 193.39-23.95 190.39-23.95L190.39-23.95Q186.79-23.95 184.26-21.7 181.74-19.45 180.99-15.15L180.99-15.15 180.99-15.25 178.29 0 173.74 0 178.59-27.4 183.14-27.4 182.44-23.45Q184.14-25.6 186.69-26.75 189.24-27.9 192.04-27.9L192.04-27.9ZM206.43-13.8Q207.18-18 209.46-21.18 211.73-24.35 215.03-26.1 218.33-27.85 222.03-27.85L222.03-27.85Q225.18-27.85 227.68-26.38 230.18-24.9 231.23-22.5L231.23-22.5 233.78-37 238.38-37 231.83 0 227.23 0 228.18-5.15Q226.43-2.7 223.48-1.13 220.53 0.45 216.98 0.45L216.98 0.45Q213.78 0.45 211.33-0.93 208.88-2.3 207.51-4.85 206.13-7.4 206.13-10.75L206.13-10.75Q206.13-12.25 206.43-13.8L206.43-13.8ZM229.68-13.75Q229.88-14.8 229.88-16L229.88-16Q229.88-19.65 227.71-21.78 225.53-23.9 222.18-23.9L222.18-23.9Q219.63-23.9 217.31-22.7 214.98-21.5 213.33-19.2 211.68-16.9 211.13-13.8L211.13-13.8Q210.93-12.75 210.93-11.5L210.93-11.5Q210.93-7.8 213.08-5.68 215.23-3.55 218.58-3.55L218.58-3.55Q221.13-3.55 223.46-4.78 225.78-6 227.46-8.33 229.13-10.65 229.68-13.75L229.68-13.75ZM240.23-13.8Q240.98-18 243.26-21.18 245.53-24.35 248.81-26.1 252.08-27.85 255.78-27.85L255.78-27.85Q259.38-27.85 261.73-26.3 264.08-24.75 264.98-22.4L264.98-22.4 265.88-27.4 270.48-27.4 265.63 0 261.03 0 261.98-5.1Q260.18-2.7 257.23-1.13 254.28 0.45 250.73 0.45L250.73 0.45Q247.53 0.45 245.08-0.93 242.63-2.3 241.28-4.85 239.93-7.4 239.93-10.75L239.93-10.75Q239.93-12.25 240.23-13.8L240.23-13.8ZM263.48-13.75Q263.68-14.8 263.68-16L263.68-16Q263.68-19.65 261.51-21.78 259.33-23.9 255.98-23.9L255.98-23.9Q253.43-23.9 251.11-22.7 248.78-21.5 247.13-19.2 245.48-16.9 244.93-13.8L244.93-13.8Q244.73-12.75 244.73-11.5L244.73-11.5Q244.73-7.8 246.88-5.68 249.03-3.55 252.38-3.55L252.38-3.55Q254.93-3.55 257.26-4.78 259.58-6 261.26-8.33 262.93-10.65 263.48-13.75L263.48-13.75ZM311.63 0L310.23-7.75 294.98-7.75 290.82 0 286.03 0 304.73-34.65 309.98-34.65 316.43 0 311.63 0ZM296.88-11.3L309.57-11.3 306.38-29.1 296.88-11.3ZM342.92-34.85L347.47-34.85 343.57-12.85Q343.32-11.35 343.32-10.4L343.32-10.4Q343.32-7 345.22-5.35 347.12-3.7 350.52-3.7L350.52-3.7Q354.57-3.7 357.22-5.98 359.87-8.25 360.72-12.85L360.72-12.85 364.62-34.85 369.17-34.85 365.27-12.85Q364.52-8.5 362.25-5.53 359.97-2.55 356.72-1.1 353.47 0.35 349.77 0.35L349.77 0.35Q344.82 0.35 341.77-2.2 338.72-4.75 338.72-9.7L338.72-9.7Q338.72-11.2 339.02-12.85L339.02-12.85 342.92-34.85ZM388.87-27.9Q393.12-27.9 395.67-25.63 398.22-23.35 398.22-19L398.22-19Q398.22-17.4 397.97-16.15L397.97-16.15 395.12 0 390.62 0 393.37-15.5Q393.57-16.55 393.57-17.7L393.57-17.7Q393.57-20.75 391.89-22.35 390.22-23.95 387.22-23.95L387.22-23.95Q383.62-23.95 381.09-21.7 378.57-19.45 377.82-15.15L377.82-15.15 377.82-15.25 375.12 0 370.57 0 375.42-27.4 379.97-27.4 379.27-23.45Q380.97-25.6 383.52-26.75 386.07-27.9 388.87-27.9L388.87-27.9ZM418.86-17.45Q419.76-22.55 422.79-26.63 425.81-30.7 430.19-33 434.56-35.3 439.36-35.3L439.36-35.3Q445.06-35.3 448.84-32.55 452.61-29.8 453.71-24.75L453.71-24.75 448.26-24.75Q447.36-27.8 444.91-29.48 442.46-31.15 438.66-31.15L438.66-31.15Q435.01-31.15 431.84-29.48 428.66-27.8 426.46-24.68 424.26-21.55 423.51-17.45L423.51-17.45Q423.26-16.15 423.26-14.45L423.26-14.45Q423.26-9.55 426.14-6.68 429.01-3.8 433.81-3.8L433.81-3.8Q437.61-3.8 440.66-5.45 443.71-7.1 445.66-10.15L445.66-10.15 451.11-10.15Q448.26-5.15 443.54-2.43 438.81 0.3 433.11 0.3L433.11 0.3Q428.86 0.3 425.56-1.48 422.26-3.25 420.41-6.48 418.56-9.7 418.56-13.9L418.56-13.9Q418.56-15.65 418.86-17.45L418.86-17.45ZM462.61-37L467.16-37 460.61 0 456.06 0 462.61-37ZM476.31-31.85Q475.21-31.85 474.48-32.58 473.76-33.3 473.76-34.4L473.76-34.4Q473.76-35.9 474.86-36.98 475.96-38.05 477.41-38.05L477.41-38.05Q478.56-38.05 479.26-37.35 479.96-36.65 479.96-35.5L479.96-35.5Q479.96-34 478.86-32.93 477.76-31.85 476.31-31.85L476.31-31.85ZM473.21-27.4L477.76-27.4 472.91 0 468.36 0 473.21-27.4ZM481.36-13.75Q482.11-18 484.38-21.18 486.66-24.35 490-26.1 493.36-27.85 497.25-27.85L497.25-27.85Q502.31-27.85 505.13-25.4 507.96-22.95 508.25-18.6L508.25-18.6 503.36-18.6Q503.11-21.1 501.33-22.55 499.56-24 496.56-24L496.56-24Q492.66-24 489.78-21.33 486.91-18.65 486.06-13.75L486.06-13.75Q485.81-12.1 485.81-11L485.81-11Q485.81-7.35 487.75-5.38 489.71-3.4 492.96-3.4L492.96-3.4Q495.96-3.4 498.18-4.8 500.41-6.2 501.61-8.8L501.61-8.8 506.5-8.8Q504.71-4.6 500.96-2.08 497.21 0.45 492.25 0.45L492.25 0.45Q487.11 0.45 484.08-2.5 481.06-5.45 481.06-10.55L481.06-10.55Q481.06-12.1 481.36-13.75L481.36-13.75ZM537.25-27.4L522-13.7 532.5 0 526.3 0 517.7-12.05 515.55 0 511 0 517.55-37 522.1-37 518.25-15.3 530.95-27.4 537.25-27.4ZM568.7-34.85Q576.15-34.85 580.27-31.25 584.4-27.65 584.4-21.25L584.4-21.25Q584.4-19.25 584.05-17.35L584.05-17.35Q583.1-12 580.17-8.08 577.25-4.15 572.72-2.08 568.2 0 562.5 0L562.5 0 551.65 0 557.85-34.85 568.7-34.85ZM563.15-3.5Q569.85-3.5 574.05-7.18 578.25-10.85 579.4-17.35L579.4-17.35Q579.7-19.15 579.7-20.75L579.7-20.75Q579.7-25.7 576.75-28.43 573.8-31.15 568.05-31.15L568.05-31.15 561.75-31.15 556.85-3.5 563.15-3.5ZM603.74-27.85Q607.19-27.85 609.72-26.53 612.24-25.2 613.57-22.83 614.89-20.45 614.89-17.4L614.89-17.4Q614.89-16.35 614.64-14.85L614.64-14.85Q614.44-13.55 613.99-12.15L613.99-12.15 592.09-12.15Q591.99-11.15 591.99-10.7L591.99-10.7Q591.99-7.25 594.07-5.33 596.14-3.4 599.49-3.4L599.49-3.4Q602.44-3.4 604.67-4.78 606.89-6.15 608.04-8.45L608.04-8.45 612.94-8.45Q611.14-4.5 607.42-2.02 603.69 0.45 598.79 0.45L598.79 0.45Q593.64 0.45 590.52-2.53 587.39-5.5 587.39-10.65L587.39-10.65Q587.39-12.1 587.69-13.75L587.69-13.75Q588.44-18 590.74-21.2 593.04-24.4 596.42-26.13 599.79-27.85 603.74-27.85L603.74-27.85ZM610.04-15.45Q610.19-16.45 610.19-17.3L610.19-17.3Q610.19-20.5 608.17-22.25 606.14-24 602.89-24L602.89-24Q599.39-24 596.54-21.73 593.69-19.45 592.69-15.45L592.69-15.45 610.04-15.45ZM649.94-34.85Q657.39-34.85 661.51-31.25 665.64-27.65 665.64-21.25L665.64-21.25Q665.64-19.25 665.29-17.35L665.29-17.35Q664.34-12 661.41-8.08 658.49-4.15 653.96-2.08 649.44 0 643.74 0L643.74 0 632.89 0 639.09-34.85 649.94-34.85ZM644.39-3.5Q651.09-3.5 655.29-7.18 659.49-10.85 660.64-17.35L660.64-17.35Q660.94-19.15 660.94-20.75L660.94-20.75Q660.94-25.7 657.99-28.43 655.04-31.15 649.29-31.15L649.29-31.15 642.99-31.15 638.09-3.5 644.39-3.5ZM676.19-31.85Q675.09-31.85 674.36-32.58 673.64-33.3 673.64-34.4L673.64-34.4Q673.64-35.9 674.74-36.98 675.84-38.05 677.29-38.05L677.29-38.05Q678.44-38.05 679.14-37.35 679.84-36.65 679.84-35.5L679.84-35.5Q679.84-34 678.74-32.93 677.64-31.85 676.19-31.85L676.19-31.85ZM673.09-27.4L677.64-27.4 672.79 0 668.24 0 673.09-27.4ZM690.18 0.45Q685.88 0.45 683.13-1.6 680.38-3.65 680.38-7.1L680.38-7.1Q680.38-7.75 680.43-8.05L680.43-8.05 684.88-8.05Q684.68-5.9 686.16-4.55 687.63-3.2 690.43-3.2L690.43-3.2Q693.23-3.2 694.96-4.28 696.68-5.35 696.68-7.3L696.68-7.3Q696.68-8.95 695.28-9.9 693.88-10.85 690.98-11.95L690.98-11.95Q688.43-12.9 686.78-13.75 685.13-14.6 683.98-16.13 682.83-17.65 682.83-20L682.83-20Q682.83-22.3 684.16-24.1 685.48-25.9 687.86-26.88 690.23-27.85 693.28-27.85L693.28-27.85Q697.48-27.85 700.18-25.75 702.88-23.65 702.88-20.25L702.88-20.25Q702.88-19.6 702.83-19.25L702.83-19.25 698.48-19.25 698.53-19.85Q698.53-21.85 697.01-23.03 695.48-24.2 692.98-24.2L692.98-24.2Q690.53-24.2 688.96-23.1 687.38-22 687.38-20.15L687.38-20.15Q687.38-18.4 688.83-17.4 690.28-16.4 693.33-15.2L693.33-15.2Q695.88-14.2 697.43-13.38 698.98-12.55 700.08-11.1 701.18-9.65 701.18-7.45L701.18-7.45Q701.18-5.05 699.76-3.25 698.33-1.45 695.83-0.5 693.33 0.45 690.18 0.45L690.18 0.45ZM716.38-23.65L713.53-7.5Q713.38-6.75 713.38-6.2L713.38-6.2Q713.38-4.95 714.16-4.4 714.93-3.85 716.68-3.85L716.68-3.85 720.03-3.85 719.33 0 715.23 0Q711.98 0 710.36-1.25 708.73-2.5 708.73-5.35L708.73-5.35Q708.73-6.45 708.93-7.5L708.93-7.5 711.78-23.65 708.28-23.65 708.93-27.4 712.48-27.4 713.68-34.3 718.28-34.3 717.08-27.4 724.18-27.4 723.53-23.65 716.38-23.65ZM725.53-13.8Q726.28-18 728.55-21.18 730.83-24.35 734.1-26.1 737.38-27.85 741.08-27.85L741.08-27.85Q744.68-27.85 747.03-26.3 749.38-24.75 750.28-22.4L750.28-22.4 751.18-27.4 755.78-27.4 750.93 0 746.33 0 747.28-5.1Q745.48-2.7 742.53-1.13 739.58 0.45 736.03 0.45L736.03 0.45Q732.83 0.45 730.38-0.93 727.93-2.3 726.58-4.85 725.23-7.4 725.23-10.75L725.23-10.75Q725.23-12.25 725.53-13.8L725.53-13.8ZM748.78-13.75Q748.98-14.8 748.98-16L748.98-16Q748.98-19.65 746.8-21.78 744.63-23.9 741.28-23.9L741.28-23.9Q738.73-23.9 736.4-22.7 734.08-21.5 732.43-19.2 730.78-16.9 730.23-13.8L730.23-13.8Q730.03-12.75 730.03-11.5L730.03-11.5Q730.03-7.8 732.18-5.68 734.33-3.55 737.68-3.55L737.68-3.55Q740.23-3.55 742.55-4.78 744.88-6 746.55-8.33 748.23-10.65 748.78-13.75L748.78-13.75ZM776.93-27.9Q781.18-27.9 783.73-25.63 786.28-23.35 786.28-19L786.28-19Q786.28-17.4 786.03-16.15L786.03-16.15 783.18 0 778.68 0 781.43-15.5Q781.63-16.55 781.63-17.7L781.63-17.7Q781.63-20.75 779.95-22.35 778.28-23.95 775.28-23.95L775.28-23.95Q771.68-23.95 769.15-21.7 766.63-19.45 765.88-15.15L765.88-15.15 765.88-15.25 763.18 0 758.63 0 763.48-27.4 768.03-27.4 767.33-23.45Q769.03-25.6 771.58-26.75 774.13-27.9 776.93-27.9L776.93-27.9ZM791.32-13.75Q792.07-18 794.35-21.18 796.62-24.35 799.97-26.1 803.32-27.85 807.22-27.85L807.22-27.85Q812.27-27.85 815.1-25.4 817.92-22.95 818.22-18.6L818.22-18.6 813.32-18.6Q813.07-21.1 811.3-22.55 809.52-24 806.52-24L806.52-24Q802.62-24 799.75-21.33 796.87-18.65 796.02-13.75L796.02-13.75Q795.77-12.1 795.77-11L795.77-11Q795.77-7.35 797.72-5.38 799.67-3.4 802.92-3.4L802.92-3.4Q805.92-3.4 808.15-4.8 810.37-6.2 811.57-8.8L811.57-8.8 816.47-8.8Q814.67-4.6 810.92-2.08 807.17 0.45 802.22 0.45L802.22 0.45Q797.07 0.45 794.05-2.5 791.02-5.45 791.02-10.55L791.02-10.55Q791.02-12.1 791.32-13.75L791.32-13.75ZM828.92-31.85Q827.82-31.85 827.1-32.58 826.37-33.3 826.37-34.4L826.37-34.4Q826.37-35.9 827.47-36.98 828.57-38.05 830.02-38.05L830.02-38.05Q831.17-38.05 831.87-37.35 832.57-36.65 832.57-35.5L832.57-35.5Q832.57-34 831.47-32.93 830.37-31.85 828.92-31.85L828.92-31.85ZM825.82-27.4L830.37-27.4 825.52 0 820.97 0 825.82-27.4ZM833.97-13.8Q834.72-18 836.99-21.18 839.27-24.35 842.54-26.1 845.82-27.85 849.52-27.85L849.52-27.85Q853.12-27.85 855.47-26.3 857.82-24.75 858.72-22.4L858.72-22.4 859.62-27.4 864.22-27.4 859.37 0 854.77 0 855.72-5.1Q853.92-2.7 850.97-1.13 848.02 0.45 844.47 0.45L844.47 0.45Q841.27 0.45 838.82-0.93 836.37-2.3 835.02-4.85 833.67-7.4 833.67-10.75L833.67-10.75Q833.67-12.25 833.97-13.8L833.97-13.8ZM857.22-13.75Q857.42-14.8 857.42-16L857.42-16Q857.42-19.65 855.24-21.78 853.07-23.9 849.72-23.9L849.72-23.9Q847.17-23.9 844.84-22.7 842.52-21.5 840.87-19.2 839.22-16.9 838.67-13.8L838.67-13.8Q838.47-12.75 838.47-11.5L838.47-11.5Q838.47-7.8 840.62-5.68 842.77-3.55 846.12-3.55L846.12-3.55Q848.67-3.55 850.99-4.78 853.32-6 854.99-8.33 856.67-10.65 857.22-13.75L857.22-13.75Z" opacity="1" transform="matrix(1,0,0,1,0,0)" fill="#010c80" class="slogan-text-1" data-fill-palette-color="secondary" id="text-1"></path></svg></g></svg></g></svg></g></svg></g><g transform="matrix(1,0,0,1,90.04941572514359,0)"><svg viewBox="0 0 215.4211685497128 215.4211685497128" height="215.4211685497128" width="215.4211685497128"><g><svg></svg></g><g id="icon-0"><svg viewBox="0 0 215.4211685497128 215.4211685497128" height="215.4211685497128" width="215.4211685497128"><g><path d="M0 107.711c0-59.487 48.224-107.711 107.711-107.711 59.487 0 107.711 48.224 107.71 107.711 0 59.487-48.224 107.711-107.71 107.71-59.487 0-107.711-48.224-107.711-107.71zM107.711 210.1c56.548 0 102.389-45.841 102.389-102.389 0-56.548-45.841-102.389-102.389-102.39-56.548 0-102.389 45.841-102.39 102.39 0 56.548 45.841 102.389 102.39 102.389z" data-fill-palette-color="accent" fill="#010c80" stroke="transparent"></path><ellipse rx="106.63347843210784" ry="106.63347843210784" cx="107.7105842748564" cy="107.7105842748564" fill="#010c80" stroke="transparent" stroke-width="0" fill-opacity="1" data-fill-palette-color="accent"></ellipse></g><g transform="matrix(1,0,0,1,43.41849397289556,46.33600286879476)"><svg viewBox="0 0 128.58418060392168 122.74916281212329" height="122.74916281212329" width="128.58418060392168"><g><svg xmlns="http://www.w3.org/2000/svg" xmlns:xlink="http://www.w3.org/1999/xlink" version="1.1" x="0" y="0" viewBox="9.8 13 72.48949886045634 69.2" style="enable-background:new 0 0 90 90;" xml:space="preserve" height="122.74916281212329" width="128.58418060392168" class="icon-dxe-0" data-fill-palette-color="quaternary" id="dxe-0"><g fill="#ffffff" data-fill-palette-color="quaternary"><path d="M61.7 82.2C59 82.2 56.2 81.6 53.5 80.3L25.3 67C23.6 66.2 22.3 64.8 21.7 63S21.2 59.3 22 57.6C22.1 57.3 22.4 57 22.7 56.9 25.6 55.1 31.4 54.3 34.7 55.8L21.7 34.9C20.7 33.3 20.4 31.4 20.8 29.6S22.4 26.2 24 25.2C27.3 23.2 31.7 24.2 33.7 27.5L39.5 36.9C40 36.4 40.5 35.9 41.1 35.6 43.2 34.3 45.8 34.2 47.9 35.3 48.5 34.2 49.3 33.3 50.4 32.6 52.5 31.3 55.1 31.2 57.2 32.3 57.8 31.2 58.6 30.3 59.7 29.6 61.4 28.6 63.4 28.3 65.3 28.8 67.1 29.3 68.6 30.4 69.5 32L79.8 50.8C84.8 60 81.6 70 76.1 75.8 72 79.9 66.9 82.2 61.7 82.2M24.9 59.6C24.7 60.3 24.7 61.1 25 61.8 25.3 62.7 26 63.4 26.8 63.8L55 77.1C62.6 80.7 69.6 77.4 73.6 73.2 78.2 68.3 81 59.9 76.8 52.3L66.4 33.4C66 32.7 65.3 32.1 64.4 31.9 63.4 31.6 62.4 31.8 61.5 32.3 60.5 32.9 59.9 33.9 59.8 35.1 59.7 35.8 59.3 36.4 58.6 36.7 57.9 36.9 57.2 36.7 56.7 36.2 55.6 34.9 53.6 34.6 52.1 35.5 51.1 36.1 50.5 37.1 50.4 38.3 50.3 39 49.9 39.6 49.2 39.9 48.5 40.1 47.8 39.9 47.3 39.4 46.2 38.1 44.2 37.8 42.7 38.7 41.9 39.2 41.3 40 41.1 41 40.9 41.7 40.4 42.2 39.7 42.4 39 42.5 38.3 42.2 37.9 41.6L30.5 29.6C29.5 27.9 27.3 27.4 25.6 28.5 24.8 29 24.2 29.8 24 30.7S23.9 32.6 24.4 33.4L40.5 59.4C40.9 60.1 40.8 60.9 40.3 61.5S38.9 62.3 38.2 61.9L33.2 59C31.3 58.1 27.2 58.5 24.9 59.6" fill="#ffffff" data-fill-palette-color="quaternary"></path></g><g fill="#ffffff" data-fill-palette-color="quaternary"><path d="M21.8 46.5C21.6 46.5 21.4 46.5 21.2 46.4 14.4 44 9.8 37.5 9.8 30.2 9.8 20.7 17.5 13 27 13 35.4 13 42.7 19.3 44 27.5 44.1 28.5 43.5 29.4 42.5 29.5S40.6 29 40.5 28C39.5 21.4 33.7 16.5 27 16.5 19.5 16.5 13.4 22.6 13.4 30.1 13.4 35.9 17 41 22.5 43 23.4 43.3 23.9 44.3 23.6 45.3 23.2 46 22.5 46.5 21.8 46.5" fill="#ffffff" data-fill-palette-color="quaternary"></path></g></svg></g></svg></g></svg></g></svg></g><g></g></svg></g><defs></defs></svg><rect width="295.49350966212495" height="247.2" fill="none" stroke="none" visibility="hidden"></rect></g></svg></g></svg>